<?xml version="1.0" encoding="UTF-8"?>
<svg width="600" height="400" viewBox="0 0 600 400" fill="none" xmlns="http://www.w3.org/2000/svg">
  <!-- Background -->
  <rect width="600" height="400" fill="#F5F5F5" opacity="0.5"/>
  
  <!-- Desk -->
  <rect x="100" y="250" width="400" height="20" fill="#90A4AE"/>
  <rect x="120" y="270" width="360" height="80" fill="#78909C"/>
  
  <!-- Computer -->
  <rect x="250" y="180" width="100" height="70" fill="#E0E0E0"/>
  <rect x="290" y="270" width="20" height="40" fill="#BDBDBD"/>
  <rect x="270" y="310" width="60" height="10" fill="#9E9E9E"/>
  
  <!-- Therapist figure -->
  <circle cx="400" cy="200" r="40" fill="#1976D2"/>
  <rect x="380" y="240" width="40" height="80" fill="#1976D2"/>
  
  <!-- Calendar -->
  <rect x="150" y="150" width="80" height="80" fill="#FFFFFF"/>
  <rect x="160" y="160" width="60" height="10" fill="#EF5350"/>
  <rect x="160" y="180" width="20" height="10" fill="#9E9E9E"/>
  <rect x="190" y="180" width="20" height="10" fill="#9E9E9E"/>
  <rect x="160" y="200" width="20" height="10" fill="#9E9E9E"/>
  <rect x="190" y="200" width="20" height="10" fill="#9E9E9E"/>
  
  <!-- Abstract elements -->
  <circle cx="480" cy="150" r="30" fill="#90CAF9" opacity="0.5"/>
  <circle cx="120" cy="180" r="20" fill="#90CAF9" opacity="0.5"/>
  <circle cx="500" cy="280" r="25" fill="#90CAF9" opacity="0.5"/>
</svg> 